# xmcd
#
# Track frame offsets:
#	150
#	18969
#	37350
#	56361
#	76848
#	95862
#	112476
#	132679
#	154006
#	174923
#	203204
#	226134
#	251219
#	275516
#	297228
#	317004
#
# Disc length: 4588 seconds
#
# Revision: 0
# Processed by: cddbd v1.5.2PL0 Copyright (c) Steve Scherf et al.
# Submitted via: EZCDAudioConverter 1.0.2.1
#
DISCID=ec11ea10
DTITLE=Various Artist - De con mai tuyet voi
DYEAR=1900
DGENRE=
TTITLE0=Lam Nhat Tien - De Con Mai Tuyet Voi
TTITLE1=Lam Nhat Tien - Yeu Em Am Tham
TTITLE2=Lam Thuy Van - Anh La Tia Nang Trong Em
TTITLE3=Loan Chau - Ben em la bien rong
TTITLE4=Sy Dan - Con tim mu loa
TTITLE5=Le Tam - Ve voi yeu thuong
TTITLE6=Various Artist - Track02
TTITLE7=Thanh Truc - Tinh muon
TTITLE8=Thanh Truc - Trang mo ben suoi
TTITLE9=Bang Kieu - Con Gio Thoang and Trai Tim Toi Loi (song ca voi Thanh Ha)
TTITLE10=Nguyen Hong Nhung, Bang Kieu - Di Vang Cuoc Tinh
TTITLE11=Bang Kieu, Minh Tuyet - Di Vang
TTITLE12=Bang Kieu - Nu Hon Cuoi Cung
TTITLE13=Bang Kieu - Yeu Thuong Mong Manh
TTITLE14=Bang Kieu and Ngoc Quynh - Rong Reu
TTITLE15=Bang Kieu - Thu Hat Cho Nguoi
EXTD=
EXTT0=
EXTT1=
EXTT2=
EXTT3=
EXTT4=
EXTT5=
EXTT6=
EXTT7=
EXTT8=
EXTT9=
EXTT10=
EXTT11=
EXTT12=
EXTT13=
EXTT14=
EXTT15=
PLAYORDER=
